<svg version="1.1" id="Layer_1" xmlns="http://www.w3.org/2000/svg" xmlns:xlink="http://www.w3.org/1999/xlink" x="0px" y="0px"
	 width="100%" viewBox="0 0 512 512" enable-background="new 0 0 512 512" xml:space="preserve">
<path fill="#000000" opacity="1.000000" stroke="none" 
	d="
M284.000000,513.000000 
	C189.356308,513.000000 95.212616,513.000000 1.034460,513.000000 
	C1.034460,342.397949 1.034460,171.795883 1.034460,1.096914 
	C171.560379,1.096914 342.120819,1.096914 512.840637,1.096914 
	C512.840637,171.666550 512.840637,342.333252 512.840637,513.000000 
	C436.795868,513.000000 360.647919,513.000000 284.000000,513.000000 
M286.688538,196.255936 
	C287.027252,185.374496 289.170959,175.184113 296.882996,166.772293 
	C298.593903,164.906097 299.638245,162.191849 300.348541,159.686371 
	C303.368805,149.032730 297.141510,139.396011 286.384155,139.164551 
	C266.405884,138.734695 246.409988,138.841217 226.426117,139.094315 
	C218.652847,139.192749 214.049088,144.203247 212.971695,151.928802 
	C212.109360,158.112244 213.992477,163.408401 217.586319,168.268906 
	C222.720703,175.212906 226.209503,182.823624 227.079102,191.507385 
	C230.436829,225.037369 231.778976,258.654144 229.708694,292.289459 
	C228.487167,312.135162 226.950760,331.803650 215.861008,349.791595 
	C207.906433,362.694153 216.584305,374.954071 231.848526,374.963715 
	C247.339188,374.973480 262.830505,375.042969 278.320007,374.910065 
	C281.950134,374.878906 285.666260,374.512146 289.182281,373.647278 
	C297.094666,371.700958 301.794647,366.034363 300.731323,357.971649 
	C299.999359,352.421722 297.794830,346.651093 294.787537,341.904755 
	C288.994080,332.761047 286.028625,322.920227 285.073181,312.380707 
	C281.587494,273.929565 282.676544,235.523636 286.688538,196.255936 
z"/>
<path fill="#FEFEFE" opacity="1.000000" stroke="none" 
	d="
M286.621399,196.708008 
	C282.676544,235.523636 281.587494,273.929565 285.073181,312.380707 
	C286.028625,322.920227 288.994080,332.761047 294.787537,341.904755 
	C297.794830,346.651093 299.999359,352.421722 300.731323,357.971649 
	C301.794647,366.034363 297.094666,371.700958 289.182281,373.647278 
	C285.666260,374.512146 281.950134,374.878906 278.320007,374.910065 
	C262.830505,375.042969 247.339188,374.973480 231.848526,374.963715 
	C216.584305,374.954071 207.906433,362.694153 215.861008,349.791595 
	C226.950760,331.803650 228.487167,312.135162 229.708694,292.289459 
	C231.778976,258.654144 230.436829,225.037369 227.079102,191.507385 
	C226.209503,182.823624 222.720703,175.212906 217.586319,168.268906 
	C213.992477,163.408401 212.109360,158.112244 212.971695,151.928802 
	C214.049088,144.203247 218.652847,139.192749 226.426117,139.094315 
	C246.409988,138.841217 266.405884,138.734695 286.384155,139.164551 
	C297.141510,139.396011 303.368805,149.032730 300.348541,159.686371 
	C299.638245,162.191849 298.593903,164.906097 296.882996,166.772293 
	C289.170959,175.184113 287.027252,185.374496 286.621399,196.708008 
z"/>
</svg>